<svg id="vuesax_linear_bank" data-name="vuesax/linear/bank" xmlns="http://www.w3.org/2000/svg" width="20" height="20" viewBox="0 0 20 20">
  <rect id="vuesax_linear_bank-2" data-name="vuesax/linear/bank" width="20" height="20" fill="none"/>
  <g id="vuesax_linear_bank-3" data-name="vuesax/linear/bank">
    <g id="bank">
      <path id="Vector" d="M8.511.049,15.9,3a.889.889,0,0,1,.517.763V6.492a.823.823,0,0,1-.821.821H.821A.823.823,0,0,1,0,6.492V3.767A.889.889,0,0,1,.517,3L7.9.049A.961.961,0,0,1,8.511.049Z" transform="translate(1.641 1.715)" fill="none" stroke="#ff7043" stroke-linecap="round" stroke-linejoin="round" stroke-width="1"/>
      <path id="Vector-2" data-name="Vector" d="M16.414,3.283H0V.821A.823.823,0,0,1,.821,0H15.593a.823.823,0,0,1,.821.821Z" transform="translate(1.641 14.773)" fill="none" stroke="#ff7043" stroke-linecap="round" stroke-linejoin="round" stroke-width="1"/>
      <path id="Vector-3" data-name="Vector" d="M0,5.745V0" transform="translate(3.283 9.028)" fill="none" stroke="#ff7043" stroke-linecap="round" stroke-linejoin="round" stroke-width="1"/>
      <path id="Vector-4" data-name="Vector" d="M0,5.745V0" transform="translate(6.566 9.028)" fill="none" stroke="#ff7043" stroke-linecap="round" stroke-linejoin="round" stroke-width="1"/>
      <path id="Vector-5" data-name="Vector" d="M0,5.745V0" transform="translate(9.849 9.028)" fill="none" stroke="#ff7043" stroke-linecap="round" stroke-linejoin="round" stroke-width="1"/>
      <path id="Vector-6" data-name="Vector" d="M0,5.745V0" transform="translate(13.131 9.028)" fill="none" stroke="#ff7043" stroke-linecap="round" stroke-linejoin="round" stroke-width="1"/>
      <path id="Vector-7" data-name="Vector" d="M0,5.745V0" transform="translate(16.414 9.028)" fill="none" stroke="#ff7043" stroke-linecap="round" stroke-linejoin="round" stroke-width="1"/>
      <path id="Vector-8" data-name="Vector" d="M0,0H18.056" transform="translate(0.821 18.056)" fill="none" stroke="#ff7043" stroke-linecap="round" stroke-linejoin="round" stroke-width="1"/>
      <path id="Vector-9" data-name="Vector" d="M2.462,1.231A1.231,1.231,0,1,1,1.231,0,1.231,1.231,0,0,1,2.462,1.231Z" transform="translate(8.617 4.514)" fill="none" stroke="#ff7043" stroke-linecap="round" stroke-linejoin="round" stroke-width="1"/>
      <path id="Vector-10" data-name="Vector" d="M0,0H19.7V19.7H0Z" fill="none"/>
    </g>
  </g>
</svg>
