<svg xmlns="http://www.w3.org/2000/svg" width="24" height="24" viewBox="0 0 24 24"><g transform="translate(-247.25 -579.402)"><g transform="translate(1515 -1810.554)"><path d="M5.016,18.314a6.281,6.281,0,0,0,.276-1.663c-.016-3.091-3.146-3.037-3.7-3.037a3.63,3.63,0,0,0-.878,0l-.671.636L0,13.316c0-.068,0-.135,0-.2v-5.3a3.846,3.846,0,0,1,.831-2.4,3.916,3.916,0,0,1,2.777-3.11L13.9.067A2.9,2.9,0,0,1,14.516,0c1.706,0,3.16,1.508,3.457,3.585l.07.492a3.692,3.692,0,0,1,3.287,3.74v7.505a3.674,3.674,0,0,1-3.572,3.752L4.4,19.388ZM1.6,12.553c2.336,0,4.7,1.321,4.72,4.532a6.376,6.376,0,0,1-.216.861l11.65-.279a2.267,2.267,0,0,0,2.174-2.345V7.817a2.267,2.267,0,0,0-2.174-2.345H3.58A2.267,2.267,0,0,0,1.406,7.817l.012,4.736.06,0ZM14.2,1.442,4.292,3.6H16.549a2.413,2.413,0,0,0-2.033-2.19A1.515,1.515,0,0,0,14.2,1.442Zm.249,10.274a1.875,1.875,0,1,1,1.876,1.877A1.876,1.876,0,0,1,14.45,11.716Zm.938,0a.937.937,0,1,0,.938-.938A.939.939,0,0,0,15.387,11.716Z" transform="translate(-1265.08 2391.956)" fill="#424242"/><circle cx="1.941" cy="1.941" r="1.941" transform="translate(-1250.873 2401.763)" fill="#424242"/><g transform="translate(-1267.75 2404.189)"><path d="M0,4.611A4.611,4.611,0,1,1,4.611,9.221,4.616,4.616,0,0,1,0,4.611Zm1.456,0A3.154,3.154,0,1,0,4.611,1.456,3.158,3.158,0,0,0,1.456,4.611ZM3.017,5.958a.729.729,0,0,1,.246-1L4,4.512l.011-.007A.234.234,0,0,0,4.126,4.3V3.4a.728.728,0,0,1,1.455,0v.9A1.7,1.7,0,0,1,4.75,5.76L4.017,6.2a.729.729,0,0,1-1-.246Z" fill="#ff7043"/></g></g></g><rect width="24" height="24" fill="none"/></svg>