<svg xmlns="http://www.w3.org/2000/svg" width="24" height="24" viewBox="0 0 24 24"><rect width="24" height="24" transform="translate(0 0)" fill="none"/><path d="M2308.027-1505.714a2.931,2.931,0,0,1-1.509-.917c-.024-.028-.044-.051-.057-.068-.146-.174-1.74-2.065-3.3-3.871-.954-1.1-1.708-1.959-2.24-2.542a3.071,3.071,0,0,1-.914-2.5,3.658,3.658,0,0,1,1.451-2.316c.692-.613,9.332-8.253,10.9-9.536.208-.171.374-.311.521-.435a2.481,2.481,0,0,1,2.354-.792c.265.011.594.024,1.024.03a30.557,30.557,0,0,1,4.482.326l.555.072a3.026,3.026,0,0,1,1.949,1,3.087,3.087,0,0,1,.719,1.771,27.621,27.621,0,0,1-.269,5.042c-.087.529-.129.932-.162,1.256a3.418,3.418,0,0,1-1.583,2.857c-.032.03-.064.06-.1.087h0l-.039.036c-2.263,2.078-8.717,7.871-10.705,9.545a3.8,3.8,0,0,1-2.455,1.031A2.749,2.749,0,0,1,2308.027-1505.714Zm6.45-21.275a3.629,3.629,0,0,0-.5.392c-.144.122-.325.275-.545.455-1.576,1.287-10.791,9.438-10.883,9.521l-.042.037-.038.024a2,2,0,0,0-.779,1.166,1.442,1.442,0,0,0,.48,1.125c.543.594,1.309,1.462,2.272,2.579,1.637,1.893,3.308,3.881,3.325,3.9l.032.039a1.251,1.251,0,0,0,.617.375,1.924,1.924,0,0,0,1.61-.606c1.983-1.67,8.465-7.49,10.685-9.53l.1-.09.012-.011.012-.01c.918-.8.92-.816,1.016-1.752.036-.348.08-.781.176-1.359a26.345,26.345,0,0,0,.249-4.687,1.391,1.391,0,0,0-.305-.73,1.334,1.334,0,0,0-.885-.421l-.559-.073a28.891,28.891,0,0,0-4.286-.312c-.451-.006-.793-.02-1.07-.031-.184-.008-.362-.015-.493-.015A.829.829,0,0,0,2314.477-1526.989Z" transform="translate(-2299.986 1528.707)" fill="#424242"/><path d="M2415.9-851.118a.216.216,0,0,1-.151-.179l-.342-2.377-2.151-1.071a.225.225,0,0,1-.125-.2.225.225,0,0,1,.125-.2l2.159-1.057.351-2.375a.23.23,0,0,1,.153-.182.23.23,0,0,1,.23.057l1.674,1.726,2.37-.4a.225.225,0,0,1,.219.089.22.22,0,0,1,.017.235l-1.124,2.124,1.11,2.129a.217.217,0,0,1-.015.237.226.226,0,0,1-.22.09l-2.366-.413-1.686,1.716a.219.219,0,0,1-.092.055.223.223,0,0,1-.069.011A.238.238,0,0,1,2415.9-851.118Z" transform="translate(-2406.865 867.839)" fill="#ff7043"/><path d="M2316.82-1521.376a1.571,1.571,0,0,1,.153-2.208,1.548,1.548,0,0,1,2.194.155,1.571,1.571,0,0,1-.153,2.208,1.545,1.545,0,0,1-1.02.384A1.545,1.545,0,0,1,2316.82-1521.376Z" transform="translate(-2299.986 1528.707)" fill="#424242"/></svg>