<svg xmlns="http://www.w3.org/2000/svg" width="24" height="24" viewBox="0 0 24 24"><rect width="24" height="24" fill="none"/><path d="M12,1.5A10.5,10.5,0,1,0,22.5,12,10.512,10.512,0,0,0,12,1.5M12,0A12,12,0,1,1,0,12,12,12,0,0,1,12,0Z" fill="#424242"/><rect width="9.543" height="14" rx="2" transform="translate(5.037 7.175) rotate(-21)" fill="#ff7043"/><path d="M0,1.433H2.058a.952.952,0,0,0-.116-.295A.7.7,0,0,0,1.715.911,1.15,1.15,0,0,0,1.352.767,2.294,2.294,0,0,0,.839.717H0L0,0H4.081V.717H2.77a1.216,1.216,0,0,1,.208.319,1.353,1.353,0,0,1,.107.4h1v.712H3.063a1.551,1.551,0,0,1-.465.826,1.937,1.937,0,0,1-.929.472v.017a1.708,1.708,0,0,1,.275.162,1.84,1.84,0,0,1,.245.214,2.756,2.756,0,0,1,.234.28q.116.157.247.354l1.18,1.8H2.687l-1-1.612q-.144-.236-.273-.413a1.539,1.539,0,0,0-.275-.295,1.031,1.031,0,0,0-.323-.177A1.307,1.307,0,0,0,.406,3.71H0V2.95h.83a1.5,1.5,0,0,0,.424-.059,1.3,1.3,0,0,0,.361-.166,1.126,1.126,0,0,0,.271-.253.93.93,0,0,0,.159-.326H0Z" transform="translate(9.009 9.305) rotate(-20)" fill="#fff"/><path d="M-2973.292,2844.828l-.96-1.152-.01.009c.474-.429,9.285-9.413,15.315-15.744l1.076,1.006C-2960.423,2831.625-2972.825,2844.439-2973.292,2844.828Z" transform="translate(2979.3 -2823.385)" fill="#424242"/></svg>