<svg xmlns="http://www.w3.org/2000/svg" width="24" height="24" viewBox="0 0 24 24"><rect width="24" height="24" fill="none"/><path d="M12,1.5A10.5,10.5,0,1,0,22.5,12,10.512,10.512,0,0,0,12,1.5M12,0A12,12,0,1,1,0,12,12,12,0,0,1,12,0Z" fill="#424242"/><path d="M459.9,646.373a3.2,3.2,0,0,1-1.32-.264,2.962,2.962,0,0,1-1.634-2.158c-.746-3.086-2.146-9.33-2.244-9.764a2.629,2.629,0,0,1,.223-1.943,2.8,2.8,0,0,1,1.921-1.284c1.97-.451,4.155-.977,4.49-1.058a2.627,2.627,0,0,1,2.034.116,3.18,3.18,0,0,1,1.523,2.275c.239,1.042.6,2.591.916,3.958.234,1.009.45,1.937.588,2.536a.751.751,0,1,1-1.458.357l-.022-.087-.063-.255-.09-.369a.756.756,0,0,1-.02-.138c-.116-.5-.252-1.087-.4-1.7-.318-1.368-.678-2.919-.917-3.963a1.9,1.9,0,0,0-.75-1.278,1.158,1.158,0,0,0-.839-.036.754.754,0,0,1-.11.036c-.024.006-2.414.583-4.552,1.073a1.4,1.4,0,0,0-.949.558,1.141,1.141,0,0,0-.087.8.446.446,0,0,1,.015.058c.015.066,1.477,6.592,2.243,9.763a1.528,1.528,0,0,0,.791,1.142,3.611,3.611,0,0,0,2.585-.371.75.75,0,1,1,.7,1.324A6.078,6.078,0,0,1,459.9,646.373Z" transform="translate(-449 -626)" fill="#ff7043"/><path d="M0,1.06H1.522A.7.7,0,0,0,1.437.842.521.521,0,0,0,1.269.674.851.851,0,0,0,1,.567,1.7,1.7,0,0,0,.621.53H0L0,0H3.019V.53h-.97A.9.9,0,0,1,2.2.766a1,1,0,0,1,.079.294h.74v.527H2.266a1.147,1.147,0,0,1-.344.611,1.433,1.433,0,0,1-.687.349V2.56a1.263,1.263,0,0,1,.2.12,1.361,1.361,0,0,1,.181.158,2.039,2.039,0,0,1,.173.207q.086.116.183.262l.873,1.329h-.86L1.251,3.443q-.107-.175-.2-.305a1.139,1.139,0,0,0-.2-.218.763.763,0,0,0-.239-.131A.967.967,0,0,0,.3,2.744H0V2.182H.617a1.108,1.108,0,0,0,.314-.044A.96.96,0,0,0,1.2,2.015a.833.833,0,0,0,.2-.187.688.688,0,0,0,.118-.241H0Z" transform="translate(9.332 7.502) rotate(-14)" fill="#ff7043"/><path d="M6.7,9.842a.75.75,0,0,1-.75-.763l.025-1.426A3.544,3.544,0,0,1,4.71,7.264c-.48-.3-1.53-1.118-1.574-1.153l-.045-.038c-.71-.648-.95-.886-1.048-1A8.008,8.008,0,0,0,1.3,4.591L1.262,4.58a3.092,3.092,0,0,1-1.888-1.4,1.347,1.347,0,0,1-.015-1.1A2.781,2.781,0,0,1,.979.793a2.84,2.84,0,0,1,.979-.2,2.827,2.827,0,0,1,1.39.44,5.008,5.008,0,0,1,.464.3C3.611.365,3.63-.084,3.89-.42a.845.845,0,0,1,.672-.33h.084c1.1,0,2.436.1,3.056.888A22.675,22.675,0,0,1,9.8,3.876c.021.015.063.038.095.056a1.186,1.186,0,0,1,.647.752A1.9,1.9,0,0,1,10.3,5.951,18.989,18.989,0,0,1,7.222,9.633.75.75,0,0,1,6.7,9.842ZM4.08,4.945c.3.237,1.091.837,1.428,1.049a4.154,4.154,0,0,0,1.271.235.75.75,0,0,1,.709.762l0,.216A10.176,10.176,0,0,0,8.948,5.3c.027-.056.049-.1.066-.145a1.459,1.459,0,0,1-.62-.76A22.206,22.206,0,0,0,6.523,1.066c-.009-.011-.2-.239-1.294-.3.089.493.267,1.185.349,1.507.058.228.109.424.144.577a.972.972,0,0,1-.1.876.751.751,0,0,1-.6.293c-.325,0-.482-.135-1.066-.636A11.355,11.355,0,0,0,2.609,2.334a1.356,1.356,0,0,0-.651-.245A1.407,1.407,0,0,0,1.5,2.2a1.912,1.912,0,0,0-.723.421,2.179,2.179,0,0,0,.987.545l.094.034a5.022,5.022,0,0,1,1.365.953.554.554,0,0,0-.044-.059C3.257,4.183,3.7,4.6,4.08,4.945Z" transform="translate(12 11.432) rotate(-1)" fill="#424242"/></svg>