<svg xmlns="http://www.w3.org/2000/svg" width="24" height="24" viewBox="0 0 24 24"><g transform="translate(-16 -1540)"><g transform="translate(16 1540)"><g transform="translate(-566.25 -153.415)"><path d="M2935.612-1360.974c-2.6,0-4.046-.346-4.993-1.2-.972-.87-1.369-2.2-1.369-4.58v-.5a.725.725,0,0,1,.725-.724,1.967,1.967,0,0,0,2.094-1.8,1.967,1.967,0,0,0-2.094-1.8.724.724,0,0,1-.725-.724v-.505c0-2.382.4-3.709,1.369-4.58.947-.849,2.394-1.2,4.993-1.2h11.276c2.6,0,4.045.347,4.993,1.2.972.871,1.369,2.2,1.369,4.58v1.01a.724.724,0,0,1-.725.724,1.967,1.967,0,0,0-2.094,1.8,1.966,1.966,0,0,0,2.094,1.8.725.725,0,0,1,.725.724c0,2.382-.4,3.71-1.369,4.58-.948.849-2.394,1.2-4.993,1.2Zm11.276-1.449c2.176,0,3.381-.247,4.026-.825.546-.489.817-1.356.875-2.847a3.337,3.337,0,0,1-2.807-3.18,3.338,3.338,0,0,1,2.819-3.182v-.354c0-1.9-.265-2.945-.887-3.5-.645-.579-1.85-.825-4.026-.825h-9.774v14.713Zm-15.3-13.888c-.6.542-.872,1.548-.886,3.35a3.338,3.338,0,0,1,2.818,3.182,3.338,3.338,0,0,1-2.818,3.182c.014,1.8.281,2.808.886,3.35.645.579,1.849.825,4.027.825h0v-14.713h0C2933.435-1377.136,2932.231-1376.889,2931.585-1376.311Z" transform="translate(-2363 1534.835)" fill="#424242"/></g><rect width="24" height="24" transform="translate(0)" fill="none"/></g><g transform="translate(16 1540)"><g transform="translate(-566.25 -153.415)"><path d="M2946.459-1365.787a1,1,0,0,1-1-1,1,1,0,0,1,1-1h.008a1,1,0,0,1,1,1,1,1,0,0,1-1,1Zm-6.53-.47a.748.748,0,0,1,0-1.06l6-6a.75.75,0,0,1,1.06,0,.751.751,0,0,1,0,1.061l-6,6a.748.748,0,0,1-.53.22A.747.747,0,0,1,2939.928-1366.257Zm.53-5.03a1,1,0,0,1-1-1,1,1,0,0,1,1-1h.009a1,1,0,0,1,1,1,1,1,0,0,1-1,1Z" transform="translate(-2363 1534.835)" fill="#ff7043"/></g><rect width="24" height="24" fill="none"/></g></g></svg>