<svg xmlns="http://www.w3.org/2000/svg" width="24.296" height="24.31" viewBox="0 0 24.296 24.31"><g transform="translate(0.16 0.151)"><path d="M564.367,317.569a.443.443,0,0,1-.144-.025.429.429,0,0,1-.26-.548,11.007,11.007,0,0,0,.445-1.65.429.429,0,1,1,.842.16,11.855,11.855,0,0,1-.48,1.778A.429.429,0,0,1,564.367,317.569Z" transform="translate(-541.474 -301.295)" fill="#424242" stroke="#424242" stroke-width="0.3"/><path d="M509.451,405.1a.429.429,0,0,1-.3-.729,11.114,11.114,0,0,0,1.349-1.65.429.429,0,1,1,.713.476,11.927,11.927,0,0,1-1.454,1.775A.428.428,0,0,1,509.451,405.1Z" transform="translate(-489.25 -384.544)" fill="#424242" stroke="#424242" stroke-width="0.3"/><path d="M127.312,37.414a.429.429,0,0,0-.459.067l-1.26,1.1a11.994,11.994,0,1,0-2.535,19.166.429.429,0,0,0-.412-.752,11.146,11.146,0,1,1,2.3-17.849l-1.519,1.329-.18.206a.346.346,0,0,0,0,.42c.078.124.466.168.644.169l2.658.089a1.589,1.589,0,0,0,.764-.089.476.476,0,0,0,.252-.472v-3a.428.428,0,0,0-.252-.39Z" transform="translate(-105.292 -35.244)" fill="#424242" stroke="#424242" stroke-width="0.3"/><path d="M574.15,230.178a.429.429,0,0,1-.429-.413,10.682,10.682,0,0,0-.188-1.648.429.429,0,0,1,.841-.164,11.581,11.581,0,0,1,.2,1.78.429.429,0,0,1-.413.444Z" transform="translate(-550.593 -218.19)" fill="#424242" stroke="#424242" stroke-width="0.3"/><path d="M7.285,14.571A7.286,7.286,0,0,1,2.133,2.134a7.285,7.285,0,1,1,10.3,10.3A7.238,7.238,0,0,1,7.285,14.571ZM5.257,7.62l.006.7L7.8,11.807h1.23v-.068L6.684,8.506h.005A2.048,2.048,0,0,0,9.025,6.486h.706L9.973,5.6H9.014A2.568,2.568,0,0,0,8.63,4.477h1.1l.242-.886H5.454l-.249.886H6.65A1.249,1.249,0,0,1,7.959,5.6H5.46l-.243.886H7.97A1.323,1.323,0,0,1,6.515,7.62Z" transform="translate(4.7 4.702)" fill="#ff7043"/><rect width="24" height="24" fill="none"/></g></svg>