<svg id="EMI" xmlns="http://www.w3.org/2000/svg" width="24" height="24" viewBox="0 0 24 24">
  <g id="EMI_Desktop" data-name="EMI Desktop">
    <path id="Path_1722" data-name="Path 1722" d="M2367-1707a4,4,0,0,1-4-4v-9a4,4,0,0,1,4-4h16a4,4,0,0,1,4,4v9a4,4,0,0,1-4,4Zm-2.5-13v9a2.5,2.5,0,0,0,2.5,2.5h16a2.5,2.5,0,0,0,2.5-2.5v-9a2.5,2.5,0,0,0-2.5-2.5h-16A2.5,2.5,0,0,0,2364.5-1720Z" transform="translate(-2363 1727)" fill="#424242"/>
    <rect id="Rectangle_69" data-name="Rectangle 69" width="24" height="24" transform="translate(0)" fill="none"/>
  </g>
  <g id="EMI_Desktop-2" data-name="EMI Desktop" transform="translate(0)">
    <path id="Path_1722-2" data-name="Path 1722" d="M2381.88-1712a.925.925,0,0,1-.2-.644v-5.5a.927.927,0,0,1,.2-.643.65.65,0,0,1,.505-.214.674.674,0,0,1,.516.211.919.919,0,0,1,.2.645v5.5a.927.927,0,0,1-.2.647.669.669,0,0,1-.516.214A.648.648,0,0,1,2381.88-1712Zm-2.826.017a.869.869,0,0,1-.181-.6v-4.818l-1.119,4.447q-.109.433-.178.635a.878.878,0,0,1-.255.369.746.746,0,0,1-.515.167.778.778,0,0,1-.418-.107.768.768,0,0,1-.266-.274,1.547,1.547,0,0,1-.15-.369c-.036-.135-.074-.275-.112-.421l-1.119-4.447v4.818a.872.872,0,0,1-.179.6.6.6,0,0,1-.473.2.6.6,0,0,1-.466-.2.87.87,0,0,1-.181-.6v-5.521a.7.7,0,0,1,.238-.617,1.142,1.142,0,0,1,.643-.159h.438a1.661,1.661,0,0,1,.573.072.482.482,0,0,1,.264.256,4.019,4.019,0,0,1,.2.6l1.013,3.823,1.014-3.823a4.047,4.047,0,0,1,.2-.6.482.482,0,0,1,.265-.256,1.659,1.659,0,0,1,.573-.072h.438a1.143,1.143,0,0,1,.643.159.7.7,0,0,1,.238.617v5.521a.877.877,0,0,1-.178.6.61.61,0,0,1-.479.2A.6.6,0,0,1,2379.054-1711.983Zm-11.187.081a.905.905,0,0,1-.664-.205.912.912,0,0,1-.2-.661v-5.246a1.177,1.177,0,0,1,.09-.5.56.56,0,0,1,.283-.281,1.2,1.2,0,0,1,.493-.088h3.732a.727.727,0,0,1,.5.15.508.508,0,0,1,.164.392.514.514,0,0,1-.164.4.727.727,0,0,1-.5.15h-3.185v1.714h2.932a.7.7,0,0,1,.483.145.5.5,0,0,1,.16.383.514.514,0,0,1-.157.388.684.684,0,0,1-.486.15h-2.932v1.985h3.294a.723.723,0,0,1,.5.154.531.531,0,0,1,.169.412.519.519,0,0,1-.169.4.719.719,0,0,1-.5.155Z" transform="translate(-2363 1727)" fill="#ff7043"/>
    <rect id="Rectangle_69-2" data-name="Rectangle 69" width="24" height="24" fill="none"/>
  </g>
</svg>
