<svg xmlns="http://www.w3.org/2000/svg" width="24" height="24" viewBox="0 0 24 24"><g transform="translate(0 1)"><path d="M7,10.957H1.189A1.258,1.258,0,0,1,0,9.642V4.963a1.256,1.256,0,0,1,1.189-1.31H1.4V2.977A2.853,2.853,0,0,1,4.1,0a2.851,2.851,0,0,1,2.7,2.977v.675H7a1.256,1.256,0,0,1,1.189,1.31V9.642A1.258,1.258,0,0,1,7,10.957ZM4.024,5.6A1.1,1.1,0,0,0,2.936,6.71a1.12,1.12,0,0,0,.576.985V9.057a.535.535,0,0,0,1.07,0V7.668a1.126,1.126,0,0,0,.531-.958A1.1,1.1,0,0,0,4.024,5.6ZM4.1.913A1.978,1.978,0,0,0,2.224,2.977v.675H5.966V2.977A1.975,1.975,0,0,0,4.1.913Z" transform="translate(7.984 5.086)" fill="#ff7043"/><path d="M16.925,21.59a2.07,2.07,0,0,1-1.3-.454A2.123,2.123,0,0,1,14.9,20h-6a2.123,2.123,0,0,1-.734,1.141,2.1,2.1,0,0,1-3.231-2.457,2.039,2.039,0,0,1,.465-.674L2.425,12.86h0a2.454,2.454,0,0,1-.325.029,2.095,2.095,0,0,1,0-4.19h0a2.286,2.286,0,0,1,.315.028h.01L5.39,3.585A2.093,2.093,0,0,1,6.86,0a2.07,2.07,0,0,1,1.3.454A2.123,2.123,0,0,1,8.89,1.6h5.935A2.123,2.123,0,0,1,15.559.454,2.092,2.092,0,0,1,18.787,2.91a2.1,2.1,0,0,1-.468.68l3,5.195a2.1,2.1,0,1,1,0,4.021l-2.975,5.15a2.121,2.121,0,0,1,.5.693,2.074,2.074,0,0,1,.18.847A2.1,2.1,0,0,1,16.925,21.59Zm.006-3.3a1.2,1.2,0,1,0,1.2,1.2A1.2,1.2,0,0,0,16.931,18.287Zm-10.127,0a1.2,1.2,0,1,0,1.2,1.2A1.2,1.2,0,0,0,6.8,18.287Zm.043-.888h0a2.148,2.148,0,0,1,1.3.453,2.111,2.111,0,0,1,.472.505A1.9,1.9,0,0,1,8.9,19H14.89a1.881,1.881,0,0,1,.261-.615,2.148,2.148,0,0,1,.461-.508,2.176,2.176,0,0,1,.609-.345,2.035,2.035,0,0,1,.706-.127,2.008,2.008,0,0,1,.527.071h.015L20.45,12.3a.011.011,0,0,0-.01-.01,2.115,2.115,0,0,1-.634-1.5A2.137,2.137,0,0,1,20.45,9.28L17.46,4.1a.03.03,0,0,1-.02.005,1.917,1.917,0,0,1-.564.084,2.176,2.176,0,0,1-1.294-.438,2.076,2.076,0,0,1-.48-.5A1.908,1.908,0,0,1,14.82,2.6H8.9A2.008,2.008,0,0,1,8.2,3.7a2.107,2.107,0,0,1-.618.351,2.223,2.223,0,0,1-.76.131,2.471,2.471,0,0,1-.257-.014l-.149-.033h0L6.25,4.1,3.35,9.115a1.736,1.736,0,0,1,.35.309,1.894,1.894,0,0,1,.257.386A2.2,2.2,0,0,1,4,11.664a2,2,0,0,1-.254.423,1.967,1.967,0,0,1-.366.358.048.048,0,0,0-.013.01.049.049,0,0,1-.013.01L6.25,17.49h0a.051.051,0,0,0,.024-.005A1.943,1.943,0,0,1,6.847,17.4ZM21.925,9.594a1.2,1.2,0,1,0,1.2,1.2A1.2,1.2,0,0,0,21.925,9.594Zm-19.837,0a1.2,1.2,0,1,0,1.2,1.2A1.2,1.2,0,0,0,2.088,9.594ZM16.839.854a1.2,1.2,0,1,0,1.2,1.2A1.2,1.2,0,0,0,16.839.854ZM6.8.854a1.2,1.2,0,1,0,1.2,1.2A1.2,1.2,0,0,0,6.8.854Z" fill="#424242"/></g><rect width="24" height="24" fill="none"/></svg>