<svg xmlns="http://www.w3.org/2000/svg" width="24.004" height="24.004" viewBox="0 0 24.004 24.004"><path d="M-.019.118H8.414A.754.754,0,0,1,9.17.869L9.2,7.118A2.152,2.152,0,0,1,5.852,8.895L4.6,8.06a.619.619,0,0,0-.341-.1.672.672,0,0,0-.361.107l-1.311.858-.008.005a2.182,2.182,0,0,1-1.173.345A2.153,2.153,0,0,1-.75,7.132L-.775.869A.754.754,0,0,1-.019.118Zm7.7.633H.763V7.132a.637.637,0,0,0,.646.641.654.654,0,0,0,.352-.1l1.31-.857.006,0a2.191,2.191,0,0,1,1.185-.349,2.139,2.139,0,0,1,1.184.355l1.248.835a.622.622,0,0,0,.346.106.632.632,0,0,0,.642-.635Z" transform="translate(7.779 9.236)" fill="#ff7043"/><path d="M3115.987-1197.929c-3.816,0-5.3-1.487-5.3-5.3v-8.349a2.513,2.513,0,0,1-.964-.7,3.169,3.169,0,0,1-.676-2.12v-1.117a3.169,3.169,0,0,1,.676-2.12,2.984,2.984,0,0,1,2.394-.95h.7a1.886,1.886,0,0,1,.551-1.206l1.585-1.585a1.89,1.89,0,0,1,1.345-.555,1.891,1.891,0,0,1,1.346.555l2.791,2.791h.1l2.792-2.791a1.89,1.89,0,0,1,1.345-.555,1.89,1.89,0,0,1,1.346.555l1.585,1.585a1.885,1.885,0,0,1,.551,1.206h.71a2.979,2.979,0,0,1,2.363.943,3.174,3.174,0,0,1,.707,2.127v1.117a3.174,3.174,0,0,1-.707,2.127,2.6,2.6,0,0,1-1,.7v8.336c0,3.815-1.487,5.3-5.3,5.3Zm-3.629-5.3c0,2.882.746,3.629,3.629,3.629h8.931c2.883,0,3.628-.746,3.628-3.629v-8.094h-16.188Zm16.5-9.769c.979,0,1.4-.417,1.4-1.4v-1.117c0-.977-.418-1.4-1.4-1.4h-16.745c-1.018,0-1.4.379-1.4,1.4v1.117c0,1.017.378,1.4,1.4,1.4Zm-4.354-7.19-1.608,1.607h3.536l-.02-.022-1.585-1.585a.228.228,0,0,0-.162-.064A.228.228,0,0,0,3124.505-1220.189Zm-8.374,0-1.585,1.585-.019.022h3.535l-1.607-1.607a.228.228,0,0,0-.162-.064A.23.23,0,0,0,3116.132-1220.189Z" transform="translate(-3108.484 1221.932)" fill="#424242"/><path d="M0,0H24V24H0Z" transform="translate(24.004 24.004) rotate(180)" fill="none"/></svg>