<svg xmlns="http://www.w3.org/2000/svg" width="24" height="24" viewBox="0 0 24 24"><path d="M2960-1004a12,12,0,0,1,12-12,12,12,0,0,1,12,12,12,12,0,0,1-12,12A12,12,0,0,1,2960-1004Zm1.636,0A10.376,10.376,0,0,0,2972-993.636,10.375,10.375,0,0,0,2982.363-1004,10.375,10.375,0,0,0,2972-1014.364,10.376,10.376,0,0,0,2961.636-1004Z" transform="translate(-2960 1016)" fill="#424242"/><rect width="24" height="24" transform="translate(0 0)" fill="none"/><path d="M2971-998a1,1,0,0,1,1-1,1,1,0,0,1,1,1,1,1,0,0,1-1,1A1,1,0,0,1,2971-998Zm.25-3.587v-8.77a.75.75,0,0,1,.75-.75.75.75,0,0,1,.75.75v8.77a.75.75,0,0,1-.75.75A.75.75,0,0,1,2971.25-1001.588Z" transform="translate(-2960 1016.054)" fill="#ff7043"/></svg>