<svg xmlns="http://www.w3.org/2000/svg" width="24" height="24" viewBox="0 0 24 24"><g transform="translate(-208.195 -579.732)"><path d="M3231.75-2209.5a.75.75,0,0,1-.75-.75.75.75,0,0,1,.75-.749H3232v-2.263a1.757,1.757,0,0,1,1.754-1.755h.235v-6.53h-.235a1.756,1.756,0,0,1-1.754-1.754v-3.334a1.843,1.843,0,0,1,1.1-1.631l9.039-3.615a1.812,1.812,0,0,1,.651-.113,1.8,1.8,0,0,1,.65.113l9.039,3.615a1.844,1.844,0,0,1,1.1,1.631v3.334a1.756,1.756,0,0,1-1.754,1.754h-.255v6.53h.255a1.757,1.757,0,0,1,1.754,1.755V-2211h.254a.75.75,0,0,1,.75.749.751.751,0,0,1-.75.75Zm1.754-3.763V-2211h18.586v-2.263a.257.257,0,0,0-.254-.255h-18.077A.258.258,0,0,0,3233.5-2213.267Zm14.061-1.755h2.516v-6.53h-2.516Zm-4.018,0h2.517v-6.53h-2.517Zm-4.429,0h2.928v-6.53h-2.928Zm-1.5,0v-6.53h-2.124v6.53Zm5.08-15.468-9.032,3.614a.371.371,0,0,0-.161.237v3.334a.258.258,0,0,0,.255.254h18.077a.257.257,0,0,0,.254-.254v-3.334a.365.365,0,0,0-.161-.237l-9.031-3.614a.475.475,0,0,0-.1-.01A.478.478,0,0,0,3242.7-2230.491Z" transform="translate(-3022.805 2812.732)" fill="#424242"/><path d="M3240.541-2226.117a2.259,2.259,0,0,1,2.256-2.257,2.259,2.259,0,0,1,2.256,2.257,2.259,2.259,0,0,1-2.256,2.256A2.259,2.259,0,0,1,3240.541-2226.117Zm1.5,0a.757.757,0,0,0,.757.756.757.757,0,0,0,.756-.756.757.757,0,0,0-.756-.757A.757.757,0,0,0,3242.04-2226.117Z" transform="translate(-3022.805 2812.374)" fill="#ff7043"/></g><rect width="24" height="24" fill="none"/></svg>