<svg xmlns="http://www.w3.org/2000/svg" width="64" height="20" viewBox="0 0 64 20"><g transform="translate(-35.546 -203.479)"><g transform="translate(66.864 209.915)"><path d="M416.235,280.7c-.41-.164-.591-.3-.591-.59,0-.208.154-.457.561-.457a1.061,1.061,0,0,1,.557.144l.106-.323a1.3,1.3,0,0,0-.653-.149.864.864,0,0,0-.959.83c0,.427.3.689.784.87.4.154.558.322.558.6,0,.313-.227.522-.621.522a1.268,1.268,0,0,1-.68-.2l-.1.332a1.51,1.51,0,0,0,.757.2c.7,0,1.035-.413,1.035-.884C416.987,281.151,416.737,280.908,416.235,280.7Z" transform="translate(-415.195 -279.324)" fill="#006a71"/><path d="M442.664,291.712a1.687,1.687,0,0,0,.713-.141l-.068-.282a1.431,1.431,0,0,1-.593.109.688.688,0,0,1-.726-.761l1.494,0a1.144,1.144,0,0,0,.013-.19.92.92,0,0,0-.877-1.034,1.061,1.061,0,0,0-1,1.188A1.011,1.011,0,0,0,442.664,291.712Zm-.074-2.01a.565.565,0,0,1,.531.649H442A.648.648,0,0,1,442.59,289.7Z" transform="translate(-439.436 -288.556)" fill="#006a71"/><path d="M469.97,291.339a1.076,1.076,0,0,1-.475.106.745.745,0,0,1-.742-.822.755.755,0,0,1,.754-.834.908.908,0,0,1,.449.1l.087-.3a1.172,1.172,0,0,0-.535-.118,1.1,1.1,0,0,0-1.146,1.17,1.03,1.03,0,0,0,1.063,1.124,1.5,1.5,0,0,0,.612-.127Z" transform="translate(-463.976 -288.605)" fill="#006a71"/><path d="M495.789,291.649v-1.6H495.4V291.4a.565.565,0,0,1-.547.572c-.348,0-.476-.285-.476-.7v-1.211h-.388v1.283c0,.767.4.962.735.962a.8.8,0,0,0,.706-.408h.01l.02.358h.345Q495.788,291.99,495.789,291.649Z" transform="translate(-487.491 -289.138)" fill="#006a71"/><path d="M523.441,291.715h.386v-1.169a1.168,1.168,0,0,1,.014-.191.55.55,0,0,1,.52-.509,1.188,1.188,0,0,1,.137.01v-.373a.423.423,0,0,0-.107-.013.649.649,0,0,0-.593.482h-.014l-.018-.432h-.339c.014.2.018.426.018.685Z" transform="translate(-514.499 -288.605)" fill="#006a71"/><path d="M540.783,279.786h.006a.247.247,0,0,0,.25-.259.242.242,0,0,0-.247-.253.257.257,0,0,0-.009.513Z" transform="translate(-530.201 -279.273)" fill="#006a71"/><rect width="0.386" height="2.194" transform="translate(10.399 0.916)" fill="#006a71"/><path d="M551.518,283.874l-.378.122v.4h-.33v.3h.33v1.2a.872.872,0,0,0,.151.576.54.54,0,0,0,.417.168,1.03,1.03,0,0,0,.344-.055l-.017-.3a.7.7,0,0,1-.225.028c-.215,0-.292-.154-.292-.426V284.7h.555v-.3h-.555Z" transform="translate(-539.622 -283.483)" fill="#006a71"/><path d="M570.072,290.053l-.423,1.289c-.052.158-.1.326-.135.458H569.5c-.037-.131-.087-.3-.141-.449l-.463-1.3h-.423l.785,2.027a.233.233,0,0,1,.03.1.268.268,0,0,1-.03.095,1.27,1.27,0,0,1-.326.444.866.866,0,0,1-.339.2l.1.336a1.084,1.084,0,0,0,.475-.254,3.421,3.421,0,0,0,.731-1.378l.583-1.564h-.411Z" transform="translate(-555.833 -289.138)" fill="#006a71"/><path d="M416.235,334.094c-.41-.163-.591-.3-.591-.589,0-.208.154-.457.561-.457a1.068,1.068,0,0,1,.557.144l.106-.322a1.3,1.3,0,0,0-.653-.15.863.863,0,0,0-.959.829c0,.427.3.691.784.871.4.154.558.322.558.6,0,.313-.227.522-.621.522a1.254,1.254,0,0,1-.68-.2l-.1.331a1.487,1.487,0,0,0,.757.2c.7,0,1.035-.412,1.035-.884C416.987,334.544,416.737,334.3,416.235,334.094Z" transform="translate(-415.195 -328.183)" fill="#006a71"/><path d="M440.733,337.266l-.379.123v.4h-.33v.3h.33v1.2a.882.882,0,0,0,.15.576.547.547,0,0,0,.419.167,1,1,0,0,0,.344-.055l-.018-.3a.69.69,0,0,1-.225.028c-.215,0-.291-.154-.291-.427V338.1h.555v-.3h-.555Z" transform="translate(-437.976 -332.342)" fill="#006a71"/><path d="M460.28,343.779c0-.44-.157-.9-.814-.9a1.36,1.36,0,0,0-.705.188l.088.269a1.009,1.009,0,0,1,.56-.163.446.446,0,0,1,.484.507v.046c-.824,0-1.281.286-1.281.816a.616.616,0,0,0,.651.63.782.782,0,0,0,.652-.324h.013l.036.275h.347a3.947,3.947,0,0,1-.031-.525Zm-.378.607a.406.406,0,0,1-.018.127.539.539,0,0,1-.525.367.343.343,0,0,1-.36-.381c0-.425.48-.5.9-.493Z" transform="translate(-455.029 -337.481)" fill="#006a71"/><path d="M487.236,342.883a.786.786,0,0,0-.705.407h-.007l-.023-.359h-.345c.016.183.019.363.019.593v1.6h.388V343.8a.657.657,0,0,1,.025-.187.563.563,0,0,1,.52-.407c.365,0,.494.3.494.653v1.265h.387v-1.31C487.989,343.064,487.532,342.883,487.236,342.883Z" transform="translate(-480.302 -337.482)" fill="#006a71"/><path d="M516.136,331.377h-.389v1.307h-.01a.7.7,0,0,0-.643-.331,1.039,1.039,0,0,0-.956,1.178.994.994,0,0,0,.916,1.116.774.774,0,0,0,.721-.431h.01l.019.381h.347c-.013-.15-.016-.37-.016-.566Zm-.389,2.3a.654.654,0,0,1-.018.173.591.591,0,0,1-.567.475c-.416,0-.632-.367-.632-.815,0-.481.238-.845.64-.845a.575.575,0,0,1,.559.458.687.687,0,0,1,.018.172Z" transform="translate(-505.977 -326.953)" fill="#006a71"/><path d="M545.765,343.779c0-.44-.159-.9-.815-.9a1.364,1.364,0,0,0-.705.188l.089.269a1,1,0,0,1,.559-.163.446.446,0,0,1,.484.507v.046c-.823,0-1.282.286-1.282.816a.616.616,0,0,0,.653.63.79.79,0,0,0,.652-.324h.013l.036.275h.348a3.571,3.571,0,0,1-.031-.525Zm-.378.607a.455.455,0,0,1-.019.127.54.54,0,0,1-.524.367.344.344,0,0,1-.362-.381c0-.425.481-.5.905-.493Z" transform="translate(-533.461 -337.481)" fill="#006a71"/><path d="M572.083,343.361h-.014l-.016-.432h-.34c.011.2.018.427.018.685l-.006,1.51h.389v-1.17a1.229,1.229,0,0,1,.014-.191.551.551,0,0,1,.519-.508,1.191,1.191,0,0,1,.137.009v-.373a.429.429,0,0,0-.105-.012A.646.646,0,0,0,572.083,343.361Z" transform="translate(-558.802 -337.48)" fill="#006a71"/><path d="M589.155,331.377h-.387v1.307h-.009a.7.7,0,0,0-.645-.331,1.038,1.038,0,0,0-.954,1.178.992.992,0,0,0,.914,1.116.78.78,0,0,0,.724-.431h.007l.019.381h.348c-.013-.15-.018-.37-.018-.566Zm-.387,2.3a.722.722,0,0,1-.017.173.592.592,0,0,1-.57.475c-.414,0-.628-.367-.628-.815,0-.481.235-.845.638-.845a.579.579,0,0,1,.56.458.762.762,0,0,1,.017.172Z" transform="translate(-572.975 -326.953)" fill="#006a71"/><path d="M618.187,343.842c-.276-.108-.4-.191-.4-.376a.311.311,0,0,1,.353-.3.846.846,0,0,1,.437.128l.093-.286a.973.973,0,0,0-.522-.136.667.667,0,0,0-.734.643c0,.263.181.477.568.622.282.108.391.213.391.4s-.131.326-.409.326a1.059,1.059,0,0,1-.514-.154l-.095.3a1.194,1.194,0,0,0,.6.154c.5,0,.792-.272.792-.662C618.748,344.174,618.553,343.983,618.187,343.842Z" transform="translate(-600.678 -337.472)" fill="#006a71"/><path d="M651.189,333.052a1.323,1.323,0,0,1,.593.128l.1-.322a1.546,1.546,0,0,0-.7-.137,1.5,1.5,0,0,0-1.55,1.605,1.406,1.406,0,0,0,1.463,1.55,1.841,1.841,0,0,0,.783-.144l-.073-.318a1.521,1.521,0,0,1-.633.127,1.092,1.092,0,0,1-1.135-1.229A1.122,1.122,0,0,1,651.189,333.052Z" transform="translate(-630.286 -328.183)" fill="#006a71"/><path d="M681.066,342.883a1.06,1.06,0,0,0-1.058,1.164,1.033,1.033,0,0,0,1.023,1.128h0a1.059,1.059,0,0,0,1.055-1.168A1.023,1.023,0,0,0,681.066,342.883Zm-.022,1.994h0c-.374,0-.639-.363-.639-.843,0-.418.2-.852.652-.852s.639.467.639.838C681.691,344.519,681.414,344.877,681.043,344.877Z" transform="translate(-658.163 -337.482)" fill="#006a71"/><path d="M712.822,343.445h-.388v1.343a.549.549,0,0,1-.035.2.56.56,0,0,1-.511.366c-.349,0-.476-.285-.476-.7v-1.211h-.389v1.283c0,.767.4.962.735.962a.8.8,0,0,0,.707-.408h.007l.023.358h.342c-.012-.171-.016-.37-.016-.6Z" transform="translate(-686.62 -337.996)" fill="#006a71"/><path d="M741.487,342.883a.784.784,0,0,0-.7.407h-.009l-.023-.359h-.342c.013.183.017.363.017.593v1.6h.389V343.8a.7.7,0,0,1,.024-.187.565.565,0,0,1,.521-.407c.366,0,.5.3.5.653v1.265h.386v-1.31C742.24,343.064,741.783,342.883,741.487,342.883Z" transform="translate(-713.58 -337.482)" fill="#006a71"/><path d="M769.53,343.2a.923.923,0,0,1,.448.106l.086-.306a1.187,1.187,0,0,0-.534-.116,1.1,1.1,0,0,0-1.147,1.169,1.03,1.03,0,0,0,1.063,1.124,1.463,1.463,0,0,0,.611-.127l-.066-.3a1.08,1.08,0,0,1-.475.1.743.743,0,0,1-.74-.82A.755.755,0,0,1,769.53,343.2Z" transform="translate(-739.247 -337.482)" fill="#006a71"/><path d="M793.733,332.658a.257.257,0,0,0-.008.513h0a.247.247,0,0,0,.251-.258A.242.242,0,0,0,793.733,332.658Z" transform="translate(-762.277 -328.125)" fill="#006a71"/><rect width="0.388" height="2.195" transform="translate(31.262 5.449)" fill="#006a71"/><rect width="0.388" height="3.22" transform="translate(32.294 4.424)" fill="#006a71"/></g><path d="M65,216.1l-22.8,7.378-6.651-18.616,23.935-1.384L65,216.1" transform="translate(0 0)" fill="#006a71"/><path d="M98.606,278.709a2.466,2.466,0,0,1-.306,1.246,2.546,2.546,0,0,1-.855.9,4.086,4.086,0,0,1-1.329.539,7.667,7.667,0,0,1-1.722.179h-.463v2.4H90.966v-7.992h3.472a5.861,5.861,0,0,1,3.057.678,2.245,2.245,0,0,1,1.111,2.056m-2.846.034q0-1.041-1.5-1.041H93.9v2.142h.334a2.018,2.018,0,0,0,1.134-.266A.939.939,0,0,0,95.76,278.743Z" transform="translate(-50.848 -66.341)" fill="#fff"/><path d="M197.388,282.572a8.09,8.09,0,0,1-1.55.134,7.629,7.629,0,0,1-2.2-.29,4.787,4.787,0,0,1-1.632-.822,3.5,3.5,0,0,1-1.017-1.3,4.071,4.071,0,0,1-.349-1.7,3.745,3.745,0,0,1,1.419-3,4.887,4.887,0,0,1,1.611-.84,6.815,6.815,0,0,1,2.057-.3,7.473,7.473,0,0,1,1.581.122,4.424,4.424,0,0,1,.854.259l-.005,2.145a4.776,4.776,0,0,0-.987-.423,3.987,3.987,0,0,0-1.169-.168,2.355,2.355,0,0,0-1.634.567,2.074,2.074,0,0,0-.63,1.622,2.2,2.2,0,0,0,.2.956,1.986,1.986,0,0,0,.532.684,2.267,2.267,0,0,0,.783.411,3.218,3.218,0,0,0,.965.14,4.686,4.686,0,0,0,1.041-.116,8.091,8.091,0,0,0,1.086-.337l0,2a6.984,6.984,0,0,1-.962.25" transform="translate(-142.304 -64.951)" fill="#fff"/><rect width="2.978" height="7.992" transform="translate(57.259 209.635)" fill="#fff"/><path d="M298.6,227.68a1.607,1.607,0,0,1-.52,1.267,2.028,2.028,0,0,1-2.57,0,1.6,1.6,0,0,1-.52-1.267,1.622,1.622,0,0,1,.52-1.284,2.022,2.022,0,0,1,2.57,0,1.626,1.626,0,0,1,.52,1.284" transform="translate(-238.039 -20.549)" fill="#fff"/></g></svg>