<svg xmlns="http://www.w3.org/2000/svg" width="24" height="24" viewBox="0 0 24 24"><rect width="24" height="24" transform="translate(0 0)" fill="none"/><g transform="translate(-143.703 -150.75)"><g transform="translate(144.453 152)"><path d="M793.119-2116.876l-6-3.338a6.042,6.042,0,0,1-2.866-4.861v-6.35a6.044,6.044,0,0,1,2.867-4.861l6-3.326a5.63,5.63,0,0,1,2.709-.636,5.715,5.715,0,0,1,2.694.623l6,3.34a6.042,6.042,0,0,1,2.866,4.86v6.35a6.041,6.041,0,0,1-2.867,4.861l-6,3.338a5.681,5.681,0,0,1-2.7.628A5.678,5.678,0,0,1,793.119-2116.876Zm3.463-.961a3.641,3.641,0,0,0,1.2-.379l6-3.337a4.582,4.582,0,0,0,2.079-3.522v-6.35a3.367,3.367,0,0,0-.18-1.031l-9.1,5.271Zm-10.8-13.588v6.35a4.579,4.579,0,0,0,2.077,3.521l6,3.339a3.629,3.629,0,0,0,1.188.377v-9.346l-9.091-5.26A3.362,3.362,0,0,0,785.782-2131.426Zm10.033,2.914,9.166-5.309a3.847,3.847,0,0,0-1.2-1.125l-6-3.339a4.223,4.223,0,0,0-1.953-.433,4.152,4.152,0,0,0-1.962.443l-6,3.329a3.852,3.852,0,0,0-1.2,1.134Z" transform="translate(-785 2138.999)" fill="#424242"/></g></g><path d="M9.49,9.89a.75.75,0,0,1-.75-.75V5.913L-.375.649A.75.75,0,0,1-.649-.375.75.75,0,0,1,.375-.649l9.49,5.48a.75.75,0,0,1,.375.649V9.14A.75.75,0,0,1,9.49,9.89Z" transform="translate(8.174 4.1)" fill="#ff7043"/></svg>