<svg xmlns="http://www.w3.org/2000/svg" width="24" height="24" viewBox="0 0 24 24"><path d="M4.5,6.686H.007A.862.862,0,0,1-.75,5.748.862.862,0,0,1,.007,4.81H4.5a.862.862,0,0,1,.757.938.862.862,0,0,1-.757.938Z" transform="translate(0.75 1.45)" fill="#424242"/><path d="M3019.135-2463.957a11.97,11.97,0,0,1-3.5-.8.839.839,0,0,1-.473-1.087.838.838,0,0,1,1.087-.472,10.3,10.3,0,0,0,3.01.688.838.838,0,0,1,.772.893.839.839,0,0,1-.834.777Zm2.9-.961a.837.837,0,0,1,.6-1.023,10.331,10.331,0,0,0,7.691-9.985A10.337,10.337,0,0,0,3020-2486.251a12.932,12.932,0,0,0-10.444,5.8.835.835,0,0,1-.941.376.837.837,0,0,1-.615-.807v-5.091a.84.84,0,0,1,.245-.594.838.838,0,0,1,.593-.245.836.836,0,0,1,.594.245.84.84,0,0,1,.246.594v2.68a15.832,15.832,0,0,1,1.414-1.34,13.782,13.782,0,0,1,8.911-3.3,11.913,11.913,0,0,1,8.5,3.516,11.937,11.937,0,0,1,3.5,8.49,12.007,12.007,0,0,1-8.935,11.605.8.8,0,0,1-.214.028A.837.837,0,0,1,3022.039-2464.917Zm-9.505-1.635a12.117,12.117,0,0,1-2.44-2.63.84.84,0,0,1,.224-1.164.842.842,0,0,1,.629-.13.838.838,0,0,1,.535.354,10.416,10.416,0,0,0,2.1,2.267.84.84,0,0,1,.132,1.177.837.837,0,0,1-.656.314.844.844,0,0,1-.525-.183Zm-4-5.864a12.013,12.013,0,0,1-.533-3.548.838.838,0,0,1,.838-.838.837.837,0,0,1,.593.245.838.838,0,0,1,.246.593,10.354,10.354,0,0,0,.457,3.054.838.838,0,0,1-.062.64.837.837,0,0,1-.5.407.826.826,0,0,1-.246.038.837.837,0,0,1-.8-.589Z" transform="translate(-3008.003 2487.933)" fill="#424242"/><path d="M0,0H24V24H0Z" transform="translate(24 24) rotate(180)" fill="none"/><path d="M2766.447-1625.254a.8.8,0,0,1-.384-.106l-3.571-2.092a3.092,3.092,0,0,1-1.463-2.521l.078-4.5a.733.733,0,0,1,.764-.692.731.731,0,0,1,.739.723l-.079,4.5a1.71,1.71,0,0,0,.749,1.29l3.573,2.094a.686.686,0,0,1,.335.435.686.686,0,0,1-.091.541.763.763,0,0,1-.638.335Z" transform="translate(-2750.886 1642.206)" fill="#ff7043" stroke="#ff7043" stroke-width="0.4"/></svg>