<svg xmlns="http://www.w3.org/2000/svg" width="24" height="24" viewBox="0 0 24 24"><g transform="translate(2)"><path d="M11.047,24.988a.641.641,0,0,1-.213-.036l-.044-.015C.749,21.433.909,13.141,1.026,7.087c.022-.652.022-1.281.022-1.89a.651.651,0,0,1,.65-.65,11.843,11.843,0,0,0,8.892-3.361.65.65,0,0,1,.909,0,11.812,11.812,0,0,0,8.891,3.361.65.65,0,0,1,.65.609V5.2c0,.614.009,1.249.027,1.887v.01c.114,6.062.27,14.365-9.807,17.858A.646.646,0,0,1,11.047,24.988Zm0-1.364h.083L11.2,23.6c3.935-1.451,6.432-3.807,7.633-7.2,1.048-2.964.964-6.305.891-9.253V5.859l-.449-.011a12.939,12.939,0,0,1-7.955-3.006l-.3-.249-.3.249A12.936,12.936,0,0,1,2.774,5.848l-.449.011V7.141c-.06,3.1-.122,6.314.924,9.254,1.207,3.395,3.7,5.75,7.636,7.2Z" transform="translate(-1 -1)" fill="#424242"/><path d="M5.555,11.111a5.555,5.555,0,1,1,5.556-5.556A5.562,5.562,0,0,1,5.555,11.111ZM3.025,5.034a.533.533,0,0,0-.4.179.654.654,0,0,0,0,.865L4.259,7.86a.538.538,0,0,0,.4.179.532.532,0,0,0,.4-.179L8.512,4.081a.655.655,0,0,0-.03-.831.525.525,0,0,0-.762-.027L4.655,6.561,3.42,5.213A.528.528,0,0,0,3.025,5.034Z" transform="translate(4.491 6.439)" fill="#ff7043"/></g><rect width="24" height="24" fill="none"/></svg>