<svg xmlns="http://www.w3.org/2000/svg" width="24" height="24.75" viewBox="0 0 24 24.75"><g transform="translate(0 0.75)"><g transform="translate(-170.525 -553)"><path d="M2316.382-1557.209a.646.646,0,0,1,.018-.986l12.5-10.783-6.24-10.225a.661.661,0,0,1,.313-.946.835.835,0,0,1,1.063.28l6.525,10.691a.643.643,0,0,1-.144.835l-12.931,11.153a.832.832,0,0,1-.544.2A.829.829,0,0,1,2316.382-1557.209Z" transform="translate(-2137.854 2133.997)" fill="#ff7043"/><path d="M2312.694-1557.688a.678.678,0,0,1-.318-.785c2.215-7.265,6.431-21.1,6.567-21.594a.723.723,0,0,1,.6-.531.821.821,0,0,1,.115-.008.745.745,0,0,1,.645.359l6.257,10.663a.671.671,0,0,1-.151.856l-12.834,10.966a.762.762,0,0,1-.494.18A.769.769,0,0,1,2312.694-1557.688Z" transform="translate(-2138.821 2133.605)" fill="none" stroke="#424242" stroke-linecap="round" stroke-width="1.5"/></g><rect width="24" height="24" fill="none"/></g></svg>